<svg width="135" height="307" viewBox="0 0 135 307" fill="none" xmlns="http://www.w3.org/2000/svg">
<path d="M2.11034 32.3257C0.999423 40.0617 8.64325 50.7971 8.64325 50.7971H11.3333C11.3333 50.7971 11.2915 48.0887 11.3333 46.3546C11.4394 41.9499 10.8072 39.1495 12.294 35.1315C13.0716 33.0301 13.5593 31.7397 14.984 30.2214C16.9132 28.1654 18.8139 28.7485 21.1326 27.4156C23.0767 26.2981 24.1249 25.5518 25.9363 24.1422C28.0603 22.4893 28.6614 18.8086 31.1242 19.4659C32.8863 19.9363 33.7471 21.3899 34.3906 23.4408C34.9527 25.2322 34.6769 26.4653 34.3906 28.3509C34.1448 29.9696 33.7618 30.8081 33.2377 32.3257C31.0576 38.6393 27.972 40.8797 24.5912 46.3546C20.2458 53.3917 16.9837 56.6799 13.4469 64.3583C11.2303 69.1704 9.80527 71.8859 8.64325 77.2181C7.65556 81.7504 7.35347 84.4566 7.49038 89.1426C7.59559 92.7433 7.86 94.7867 8.64325 98.2614C9.59459 102.482 10.6118 104.681 12.294 108.549C14.4454 113.496 15.9031 116.153 18.8269 120.474C22.2005 125.459 24.5793 127.753 28.6263 131.931C37.4519 141.041 45.7377 141.008 53.6051 151.337C54.944 153.095 55.6219 154.161 56.8715 156.014C57.786 157.369 58.4631 157.997 59.1772 159.521C60.2242 161.754 60.1965 163.341 60.7144 165.834C63.5293 179.383 62.8095 187.726 61.483 201.607C61.2379 204.173 61.1231 205.62 60.7144 208.154C60.2517 211.023 59.1579 212.479 59.1772 215.402C59.196 218.237 60.4119 219.606 60.7144 222.417C61.0164 225.223 60.7144 226.834 60.7144 229.665V246.032C60.7144 252.972 60.8098 256.863 60.7144 263.802C60.5863 273.121 59.9991 278.33 59.9458 287.651C59.9344 289.66 60.3739 290.855 59.9458 292.795C59.3736 295.389 58.3232 296.615 56.6794 298.406C53.4779 301.896 46.1114 302.148 46.1114 302.148L44.7664 304.953C44.7664 304.953 47.6961 305.058 49.57 304.953C53.3545 304.741 55.3993 303.659 59.1772 303.317C63.5174 302.923 70.3216 303.317 70.3216 303.317C70.3216 303.317 67.7591 300.628 66.6709 298.406C65.686 296.396 65.2586 295.103 64.9416 292.795C64.6695 290.814 64.9416 289.66 64.9416 287.651V263.802C64.9416 256.862 64.7302 252.967 64.9416 246.032C65.1368 239.628 65.3203 236.034 65.9023 229.665C66.1615 226.828 66.2897 225.233 66.6709 222.417C67.0439 219.66 67.596 218.182 67.8238 215.402C68.0545 212.586 68.229 210.941 67.8238 208.154C67.435 205.481 65.9023 201.607 65.9023 201.607C65.9023 201.607 64.5097 179.559 66.6709 165.834C67.0614 163.353 67.1021 161.889 67.8238 159.521C68.2556 158.104 69.1688 156.014 69.1688 156.014C69.1688 156.014 77.4561 154.837 82.6189 156.014C83.9069 156.307 84.6239 156.517 85.8853 156.949C91.8297 158.985 94.6939 161.815 99.9119 165.834C103.501 168.598 105.726 169.92 108.751 173.55C110.304 175.413 112.541 176.045 112.401 178.694C112.304 180.539 111.162 181.156 110.288 182.668C102.765 195.683 93.5518 196.881 83.0032 206.284C78.6325 210.179 74.3035 210.454 71.8588 216.338C70.9377 218.554 70.6295 219.961 70.3216 222.417C69.7037 227.344 70.2523 230.458 71.8588 235.043C73.026 238.374 73.4746 241.022 76.086 242.759C77.7646 243.875 79.5646 245.607 80.8896 243.928C81.5964 243.032 81.7227 242.128 81.6582 240.888C81.534 238.503 79.1353 238.636 78.0074 236.679C76.966 234.873 76.493 233.686 76.086 231.536C75.4257 228.047 75.7627 225.741 76.8545 222.417C78.5092 217.379 81.7413 216.374 85.1168 212.83C90.0709 207.629 93.1926 205.214 98.5669 200.672C103.063 196.873 105.804 195.141 110.288 191.32C114.111 188.061 117.784 187.734 119.895 182.668C120.711 180.711 121.263 179.486 121.24 177.291C121.218 175.183 120.861 173.897 119.895 172.147C118.098 168.891 115.207 169.869 112.401 167.938C109.303 165.806 107.746 164.239 104.908 161.625C102.356 159.276 98.5669 155.312 98.5669 155.312C98.5669 155.312 97.8525 154.242 98.5669 152.74C99.2812 151.239 100.804 152.515 102.218 152.74C104.006 153.025 104.996 153.465 106.637 154.377C108.606 155.471 109.538 156.504 111.248 158.118C113.263 160.018 116.052 163.496 116.052 163.496C116.052 163.496 116.373 160.181 116.052 158.118C115.219 152.765 108.751 147.362 108.751 147.362C108.751 147.362 111.558 148.355 113.17 149.467C116.495 151.76 117.636 154.367 119.895 158.118C123.148 163.52 126.044 173.55 126.044 173.55V161.625L131.039 170.978L129.118 150.402L132 152.74C132 152.74 130.881 147.118 129.886 143.621C127.185 134.125 124.564 129.231 119.895 120.941C116.397 114.731 114.503 111.014 109.903 105.977C103.953 99.4614 99.5135 97.3816 92.2261 93.3513C83.0852 88.2959 77.571 85.9639 67.6316 84.2325C61.6076 83.1832 58.0513 81.9468 52.0679 83.2973C47.914 84.2349 45.5317 85.1455 41.8842 87.7397C37.9838 90.5139 37.1375 94.3167 33.2377 97.0923C30.7713 98.8478 29.3363 101.132 26.5127 100.6C24.414 100.204 23.241 99.0975 21.9012 97.0923C19.9702 94.2023 20.4297 91.4636 20.3641 87.7397C20.2905 83.5673 20.961 81.2316 21.9012 77.2181C23.1356 71.9486 24.3005 69.1309 26.5127 64.3583C30.7991 55.1107 36.9009 53.0788 41.1157 43.7826C43.3909 38.7642 45.2054 35.9176 45.7271 30.2214C46.1973 25.0879 45.8808 21.8656 44.19 17.1278C42.5514 12.5366 40.9707 10.0394 37.6571 7.07378C34.6486 4.38125 32.4917 3.45104 28.8184 2.63131C25.6448 1.92307 23.6837 1.66583 20.5562 2.63131C18.4072 3.29472 17.2803 4.07122 15.3683 5.43708C7.79417 10.8479 5.86848 18.2199 3.07106 28.3509C2.64755 29.8846 2.33922 30.7319 2.11034 32.3257Z" stroke="#F20D89" stroke-width="3"/>
</svg>
