<svg width="213" height="307" viewBox="0 0 213 307" fill="none" xmlns="http://www.w3.org/2000/svg">
<path d="M2.17654 32.3257C0.399076 40.0617 12.6292 50.7971 12.6292 50.7971H16.9332C16.9332 50.7971 16.8664 48.0887 16.9332 46.3546C17.103 41.9499 16.0915 39.1495 18.4704 35.1315C19.7145 33.0301 20.4949 31.7397 22.7744 30.2214C25.8612 28.1654 28.9022 28.7485 32.6122 27.4156C35.7227 26.2981 37.3999 25.5518 40.298 24.1422C43.6965 22.4893 44.6583 18.8086 48.5986 19.4659C51.418 19.9363 52.7954 21.3899 53.825 23.4408C54.7243 25.2322 54.283 26.4653 53.825 28.3509C53.4318 29.9696 52.8188 30.8081 51.9804 32.3257C48.4922 38.6393 43.5552 40.8797 38.146 46.3546C31.1933 53.3917 25.974 56.6799 20.315 64.3583C16.7684 69.1704 14.4884 71.8859 12.6292 77.2181C11.0489 81.7504 10.5655 84.4566 10.7846 89.1426C10.9529 92.7433 11.376 94.7867 12.6292 98.2614C14.1513 102.482 15.7789 104.681 18.4704 108.549C21.9126 113.496 24.245 116.153 28.9231 120.474C34.3208 125.459 38.1269 127.753 44.602 131.931C58.7231 141.041 71.9803 141.008 84.5681 151.337C86.7103 153.095 87.795 154.161 89.7944 156.014C91.2577 157.369 92.3409 157.997 93.4836 159.521C95.1587 161.754 95.1144 163.341 95.943 165.834C100.447 179.383 99.2951 187.726 97.1728 201.607C96.7806 204.173 96.597 205.62 95.943 208.154C95.2028 211.023 93.4527 212.479 93.4836 215.402C93.5136 218.237 95.4591 219.606 95.943 222.417C96.4263 225.223 95.943 226.834 95.943 229.665V246.032C95.943 252.972 96.0957 256.863 95.943 263.802C95.7381 273.121 94.7985 278.33 94.7133 287.651C94.695 289.66 95.3982 290.855 94.7133 292.795C93.7977 295.389 92.1171 296.615 89.487 298.406C84.3647 301.896 72.5783 302.148 72.5783 302.148L70.4263 304.953C70.4263 304.953 75.1137 305.058 78.112 304.953C84.1671 304.741 87.4388 303.659 93.4836 303.317C100.428 302.923 111.315 303.317 111.315 303.317C111.315 303.317 107.215 300.628 105.473 298.406C103.898 296.396 103.214 295.103 102.707 292.795C102.271 290.814 102.707 289.66 102.707 287.651V263.802C102.707 256.862 102.368 252.967 102.707 246.032C103.019 239.628 103.312 236.034 104.244 229.665C104.658 226.828 104.864 225.233 105.473 222.417C106.07 219.66 106.954 218.182 107.318 215.402C107.687 212.586 107.966 210.941 107.318 208.154C106.696 205.481 104.244 201.607 104.244 201.607C104.244 201.607 102.016 179.559 105.473 165.834C106.098 163.353 106.163 161.889 107.318 159.521C108.009 158.104 109.47 156.014 109.47 156.014C109.47 156.014 122.73 154.837 130.99 156.014C133.051 156.307 134.198 156.517 136.217 156.949C145.728 158.985 150.31 161.815 158.659 165.834C164.402 168.598 167.962 169.92 172.801 173.55C175.286 175.413 178.866 176.045 178.642 178.694C178.486 180.539 176.659 181.156 175.26 182.668C163.224 195.683 148.483 196.881 131.605 206.284C124.612 210.179 117.686 210.454 113.774 216.338C112.3 218.554 111.807 219.961 111.315 222.417C110.326 227.344 111.204 230.458 113.774 235.043C115.642 238.374 116.359 241.022 120.538 242.759C123.223 243.875 126.103 245.607 128.223 243.928C129.354 243.032 129.556 242.128 129.453 240.888C129.254 238.503 125.416 238.636 123.612 236.679C121.946 234.873 121.189 233.686 120.538 231.536C119.481 228.047 120.02 225.741 121.767 222.417C124.415 217.379 129.586 216.374 134.987 212.83C142.913 207.629 147.908 205.214 156.507 200.672C163.7 196.873 168.087 195.141 175.26 191.32C181.377 188.061 187.254 187.734 190.632 182.668C191.938 180.711 192.82 179.486 192.784 177.291C192.749 175.183 192.177 173.897 190.632 172.147C187.757 168.891 183.131 169.869 178.642 167.938C173.685 165.806 171.193 164.239 166.652 161.625C162.57 159.276 156.507 155.312 156.507 155.312C156.507 155.312 155.364 154.242 156.507 152.74C157.65 151.239 160.086 152.515 162.348 152.74C165.21 153.025 166.793 153.465 169.419 154.377C172.569 155.471 174.061 156.504 176.797 158.118C180.021 160.018 184.483 163.496 184.483 163.496C184.483 163.496 184.997 160.181 184.483 158.118C183.151 152.765 172.801 147.362 172.801 147.362C172.801 147.362 177.292 148.355 179.872 149.467C185.191 151.76 187.018 154.367 190.632 158.118C195.837 163.52 200.47 173.55 200.47 173.55V161.625L208.463 170.978L205.389 150.402L210 152.74C210 152.74 208.209 147.118 206.618 143.621C202.297 134.125 198.102 129.231 190.632 120.941C185.034 114.731 182.005 111.014 174.645 105.977C165.125 99.4614 158.022 97.3816 146.362 93.3513C131.736 88.2959 122.914 85.9639 107.011 84.2325C97.3722 83.1832 91.682 81.9468 82.1086 83.2973C75.4623 84.2349 71.6507 85.1455 65.8148 87.7397C59.5741 90.5139 58.22 94.3167 51.9804 97.0923C48.0341 98.8478 45.7381 101.132 41.2203 100.6C37.8624 100.204 35.9855 99.0975 33.842 97.0923C30.7524 94.2023 31.4876 91.4636 31.3825 87.7397C31.2648 83.5673 32.3377 81.2316 33.842 77.2181C35.817 71.9486 37.6809 69.1309 41.2203 64.3583C48.0785 55.1107 57.8414 53.0788 64.5851 43.7826C68.2255 38.7642 71.1286 35.9176 71.9634 30.2214C72.7158 25.0879 72.2094 21.8656 69.504 17.1278C66.8823 12.5366 64.3531 10.0394 59.0513 7.07378C54.2377 4.38125 50.7868 3.45104 44.9095 2.63131C39.8316 1.92307 36.694 1.66583 31.6899 2.63131C28.2515 3.29472 26.4484 4.07122 23.3893 5.43708C11.2707 10.8479 8.18957 18.2199 3.7137 28.3509C3.03608 29.8846 2.54276 30.7319 2.17654 32.3257Z" stroke="#F20D89" stroke-width="3"/>
</svg>
