<svg width="55" height="55" viewBox="0 0 55 55" fill="none" xmlns="http://www.w3.org/2000/svg">
<path d="M53.9628 25.0499L29.9493 1.03723C28.5672 -0.345744 26.3242 -0.345744 24.9404 1.03723L19.9539 6.02385L26.2795 12.3496C27.7495 11.8529 29.4352 12.1861 30.6069 13.3579C31.7843 14.5372 32.1151 16.2373 31.6064 17.712L37.7026 23.8085C39.1775 23.3004 40.8793 23.6291 42.0572 24.8091C43.7036 26.4548 43.7036 29.1221 42.0572 30.7689C40.4105 32.416 37.7432 32.416 36.0955 30.7689C34.8572 29.5293 34.5512 27.7106 35.1782 26.1849L29.4929 20.4996L29.4923 35.461C29.9044 35.6648 30.2808 35.934 30.6069 36.2581C32.2533 37.9038 32.2533 40.5714 30.6069 42.2195C28.9601 43.8656 26.2916 43.8656 24.6471 42.2195C23.0008 40.5714 23.0008 37.904 24.6471 36.2583C25.0417 35.8636 25.5106 35.5509 26.0267 35.3385V20.2377C25.5098 20.0267 25.0407 19.714 24.6471 19.318C23.3998 18.0723 23.0998 16.242 23.739 14.7104L17.5034 8.47397L1.0377 24.9388C-0.345899 26.3231 -0.345899 28.5663 1.0377 29.9495L25.0517 53.9626C26.4342 55.3458 28.6768 55.3458 30.061 53.9626L53.9626 30.061C55.3458 28.6774 55.3458 26.4329 53.9626 25.0499" fill="#DE4C36"/>
</svg>
