<svg width="27" height="29" viewBox="0 0 27 29" fill="none" xmlns="http://www.w3.org/2000/svg">
<g filter="url(#filter0_i)">
<path d="M25.0269 0H1.97308C0.830769 0 0 0.892307 0 2.11923V26.8808C0 27.9962 0.934615 29 1.97308 29H25.0269C26.1692 29 27 28.1077 27 26.8808V2.11923C27 0.892307 26.0654 0 25.0269 0ZM8.30769 24.5385H4.15385V11.1538H8.30769V24.5385ZM6.23077 9.36923C4.88077 9.36923 3.73846 8.14231 3.73846 6.69231C3.73846 5.24231 4.88077 4.01538 6.23077 4.01538C7.58077 4.01538 8.72308 5.24231 8.72308 6.69231C8.72308 8.14231 7.58077 9.36923 6.23077 9.36923ZM22.8462 24.5385H18.6923V17.8462C18.6923 16.0615 18.2769 14.2769 16.6154 14.2769C14.9538 14.2769 14.5385 16.0615 14.5385 17.8462V24.5385H10.3846V11.1538H14.5385V12.7154H14.7462C15.2654 11.6 16.6154 10.7077 18.1731 10.7077C22.0154 10.7077 22.8462 13.3846 22.8462 16.7308V24.5385Z" fill="#ECECEC"/>
</g>
<defs>
<filter id="filter0_i" x="0" y="0" width="27" height="31" filterUnits="userSpaceOnUse" color-interpolation-filters="sRGB">
<feFlood flood-opacity="0" result="BackgroundImageFix"/>
<feBlend mode="normal" in="SourceGraphic" in2="BackgroundImageFix" result="shape"/>
<feColorMatrix in="SourceAlpha" type="matrix" values="0 0 0 0 0 0 0 0 0 0 0 0 0 0 0 0 0 0 127 0" result="hardAlpha"/>
<feOffset dy="3"/>
<feGaussianBlur stdDeviation="1"/>
<feComposite in2="hardAlpha" operator="arithmetic" k2="-1" k3="1"/>
<feColorMatrix type="matrix" values="0 0 0 0 0.192157 0 0 0 0 0.203922 0 0 0 0 0.235294 0 0 0 0.75 0"/>
<feBlend mode="normal" in2="shape" result="effect1_innerShadow"/>
</filter>
</defs>
</svg>
