<svg width="3264" height="3264" viewBox="0 0 3264 3264" fill="none" xmlns="http://www.w3.org/2000/svg">
<path d="M2825.09 1755.79C1168.53 2198.89 2224.9 2774.01 1484.53 2774.01C763.205 2280.68 -409.976 2156.74 143.963 1755.79C697.903 1354.85 1550.58 1551.29 1221.07 693.134C891.557 -165.018 4481.66 1312.7 2825.09 1755.79Z" fill="#0D4981"/>
<path d="M1467.78 438.908C1910.87 2095.47 2486 1039.1 2486 1779.47C1992.67 2500.79 1868.72 3673.98 1467.78 3120.04C1066.83 2566.1 1263.27 1713.42 405.121 2042.93C-453.031 2372.44 1024.68 -1217.66 1467.78 438.908Z" fill="#2BF3E7"/>
<path d="M1963.22 1786.6C1911.56 1804.12 1794.65 1740.3 1823.52 1786.6C1846.33 1823.19 1886.67 1814.03 1929.69 1816.92C1970.33 1819.64 1995.41 1818.64 2033.08 1803.13C2066.53 1789.36 2094.93 1782.91 2108.52 1749.38C2118.02 1725.94 2111.58 1709.72 2108.52 1684.61C2101.66 1628.44 2081.62 1502.32 2052.63 1550.92C2034.16 1581.89 2052.63 1607.2 2052.63 1643.26C2052.63 1676.63 2066.8 1698.5 2052.63 1728.71C2034.97 1766.37 2002.61 1773.23 1963.22 1786.6Z" fill="#FBCEDD"/>
<path d="M1409.98 1834.33C1419.95 1823.92 1428.45 1801.95 1439.77 1811.26C1441.26 1812.49 1443.08 1814.81 1443.08 1814.81C1460.62 1835.86 1434.87 1855.42 1421.56 1878.7C1414.47 1891.11 1411.29 1899.04 1400.05 1908.86C1382.09 1924.57 1364.89 1925.65 1340.47 1931.93C1301.92 1941.85 1278.04 1939.99 1237.86 1939.03C1190 1937.89 1121.25 1929.32 1091.5 1931.93C1067.5 1934.04 996.662 1972.85 999.5 1952.01C999.5 1952.01 1014 1931.93 1028.5 1919.41C1044.84 1905.3 1143.39 1912.75 1166.69 1908.86C1204.14 1902.62 1264.34 1915.96 1264.34 1915.96C1264.34 1915.96 1307.3 1917.24 1332.19 1908.86C1354.75 1901.28 1367.59 1894.54 1383.5 1878.7C1398.27 1863.99 1395.62 1849.33 1409.98 1834.33Z" fill="#FBCEDD"/>
<path d="M1205.02 1728.21C1236.45 1710.38 1234.18 1680.53 1268.89 1667.4C1332.32 1643.41 1364.91 1711.33 1431.66 1728.21C1488.82 1742.67 1522.31 1753.76 1582.08 1751.86C1645.69 1749.85 1681.94 1738.39 1738.67 1714.7C1794.89 1691.22 1808.43 1613.24 1866.42 1633.62C1896.34 1644.13 1919.99 1685.98 1919.99 1685.98C1919.99 1685.98 1943.34 1655.6 1948.83 1633.62C1953.84 1613.59 1948.83 1601.71 1948.83 1581.26C1948.83 1544.31 1930.24 1520.31 1948.83 1486.66C1961.55 1463.65 1976.05 1453.21 2000.35 1437.67C2029.59 1418.97 2050.58 1399.35 2086.88 1405.58C2112.25 1409.93 2133.82 1417.14 2140.46 1437.67C2146.87 1457.53 2097.9 1480.54 2073 1488.54C2078.59 1502.25 2064.22 1552.54 2064.22 1552.54C2054.55 1590.32 2057.46 1595.41 2064.22 1633.62C2070.69 1670.18 2080.75 1693.85 2064.22 1728.21C2049.97 1757.84 2033.48 1774.1 2000.35 1790.71C1946.12 1817.91 1796.45 1750.97 1837.57 1790.71C1854.37 1806.95 1870.09 1811.75 1894.17 1819.1L1895.26 1819.43C1933.79 1831.19 1960.05 1817.81 2000.35 1824.5C2035.26 1830.29 2056.83 1832.47 2086.88 1848.15C2111.37 1860.92 2120.06 1873.45 2140.46 1890.38C2156.06 1903.32 2181.4 1906.02 2179.6 1924.16C2177.94 1940.92 2160.06 1947.92 2140.46 1952.88C2109.15 1960.79 2064.22 1924.16 2064.22 1924.16H2000.35C1946.46 1927.73 1920.34 1956.06 1866.42 1952.88C1824.03 1950.37 1799.98 1941.89 1763.4 1924.16C1725.65 1905.87 1680.98 1861.66 1680.98 1861.66H1623.29C1592.36 1872.94 1589.37 1897.07 1582.08 1924.16C1576.35 1945.42 1579.31 1958.25 1582.08 1979.9C1587.55 2022.64 1628.42 2041.86 1623.29 2084.63C1619.35 2117.44 1604.89 2134.85 1582.32 2162.04L1582.08 2162.34C1567 2180.5 1560.45 2194.32 1536.75 2204.57C1516.5 2213.32 1479.05 2213.01 1479.05 2213.01V2185.98C1482.53 2161.9 1507.9 2128.55 1507.9 2128.55V2084.63C1497.55 2050.2 1458.1 2046.82 1431.66 2018.75C1408.88 1994.57 1389.46 1982.47 1380.15 1952.88C1364.09 1901.77 1481.6 1791.19 1431.66 1824.5C1402.75 1843.78 1408.32 1870.36 1380.15 1890.38C1345.13 1915.25 1314.44 1917.21 1268.89 1924.16C1219.84 1931.64 1191.03 1924.16 1141.14 1924.16C1102.52 1924.16 1077.51 1911.26 1042.24 1924.16C1021.81 1931.63 1015.28 1942.41 996.912 1952.88C976.738 1964.37 965.565 1988.48 943.34 1979.9C919.317 1970.63 936.593 1945.22 943.34 1924.16C952.586 1895.31 969.702 1881.47 996.912 1861.66C1025.44 1840.89 1083.45 1824.5 1083.45 1824.5H1042.24C1010.89 1817.68 1003.15 1797.3 984.549 1775.51C961.828 1748.9 950.609 1731.43 943.34 1699.5C937.584 1674.21 932.808 1657.85 943.34 1633.62C954.267 1608.48 964.532 1584.03 996.912 1581.26C1041.36 1577.45 1022.22 1634.65 1042.24 1667.4C1057.09 1691.69 1058.57 1710.27 1083.45 1728.21C1102.36 1741.86 1115.97 1751.05 1141.14 1751.86C1168.49 1752.75 1182.51 1740.98 1205.02 1728.21Z" fill="#DD255C"/>
<ellipse cx="1549.11" cy="1483.28" rx="370.879" ry="273.648" fill="#DD255C"/>
<ellipse cx="1676.88" cy="1435.99" rx="78.2967" ry="87.8377" fill="#FAFAFA"/>
<ellipse cx="1470.84" cy="1435.99" rx="78.2967" ry="87.8377" fill="#FAFAFA"/>
<ellipse cx="1470.84" cy="1434.3" rx="45.3297" ry="48.9864" fill="#3D398D"/>
<ellipse cx="1676.88" cy="1434.3" rx="45.3297" ry="48.9864" fill="#3D398D"/>
<ellipse cx="1470.84" cy="1435.99" rx="20.6044" ry="33.7837" fill="#11101A"/>
<ellipse cx="1676.88" cy="1435.99" rx="20.6044" ry="33.7837" fill="#11101A"/>
<path d="M1450.67 1321.97C1429.72 1324.52 1409.36 1344.49 1409.36 1344.49C1409.36 1344.49 1407.38 1327.13 1413.94 1317.74C1422.78 1305.1 1433.72 1293.48 1455.26 1295.21C1477.9 1297.03 1491.48 1326.67 1491.48 1326.67C1491.48 1326.67 1466.24 1320.07 1450.67 1321.97Z" fill="#041815"/>
<path d="M1493.89 1576.79L1470.83 1571.12C1470.83 1571.12 1483.1 1573.02 1493.89 1576.79L1512.04 1581.26C1512.04 1581.26 1547.36 1583.4 1569.74 1581.26C1591.06 1579.22 1603.61 1578.13 1623.31 1571.12C1630.07 1568.71 1637.83 1564.9 1644.65 1561.22C1653.96 1554.99 1662.46 1550.85 1662.46 1550.85C1662.46 1550.85 1654.55 1555.89 1644.65 1561.22C1636.39 1566.74 1627.49 1573.9 1623.31 1581.26C1616.43 1593.35 1619.98 1601.91 1617.13 1615.04C1614.96 1624.97 1618.02 1632.12 1610.94 1640.38C1603.49 1649.08 1595.03 1653.05 1582.1 1653.89C1567.03 1654.87 1558.17 1648.79 1547.07 1640.38C1536.73 1632.55 1535.77 1624.93 1528.53 1615.04C1518.87 1601.85 1518.85 1590.45 1503.8 1581.26C1501.02 1579.55 1497.54 1578.07 1493.89 1576.79Z" fill="#92191F"/>
<path d="M1470.83 1571.12L1512.04 1581.26C1512.04 1581.26 1547.36 1583.4 1569.74 1581.26C1591.06 1579.22 1603.61 1578.13 1623.31 1571.12C1639.89 1565.22 1662.46 1550.85 1662.46 1550.85C1662.46 1550.85 1632.21 1565.61 1623.31 1581.26C1616.43 1593.35 1619.98 1601.91 1617.13 1615.04C1614.96 1624.97 1618.02 1632.12 1610.94 1640.38C1603.49 1649.08 1595.03 1653.05 1582.1 1653.89C1567.03 1654.87 1558.17 1648.79 1547.07 1640.38C1536.73 1632.55 1535.77 1624.93 1528.53 1615.04C1518.87 1601.85 1518.85 1590.45 1503.8 1581.26C1492.78 1574.52 1470.83 1571.12 1470.83 1571.12Z" stroke="#92191F"/>
<path d="M1690.73 1317.51C1670.48 1312.42 1641.61 1323.26 1641.61 1323.26C1641.61 1323.26 1648.94 1306.89 1659.8 1300.73C1674.41 1292.45 1690.39 1285.82 1708.92 1294.98C1728.4 1304.61 1725.09 1336.16 1725.09 1336.16C1725.09 1336.16 1705.78 1321.3 1690.73 1317.51Z" fill="#041815"/>
<path d="M1576.11 1608.89C1559.98 1610.96 1538.83 1621.8 1538.83 1621.8C1526.47 1626.86 1543.87 1642.42 1555.31 1648.82C1567.87 1655.85 1578.07 1657.78 1592.4 1653.89C1604.34 1650.65 1612.15 1643.28 1617.37 1633.62C1621.39 1626.18 1619.08 1613.97 1619.19 1611.66C1619.19 1611.66 1592.06 1606.84 1576.11 1608.89Z" fill="#F15E5A"/>
<path d="M1456.07 1259.98C1456.07 1259.98 1429.15 1262.22 1426.62 1257.79C1425.39 1255.62 1425.98 1253.77 1430.26 1252.35C1440.86 1248.85 1445.56 1247.79 1456.1 1245.41L1456.34 1245.36C1472.01 1241.82 1498.93 1238.12 1498.93 1238.12L1539.13 1233.12C1539.13 1233.12 1584.77 1227 1613.94 1229.1C1641.17 1231.06 1658.91 1237.15 1681.69 1242.17C1706.91 1247.73 1719.29 1252.58 1736.77 1261.57C1746.96 1266.81 1753.74 1269.78 1758.92 1276C1761.97 1279.66 1763.47 1285.65 1763.47 1285.65C1763.47 1285.65 1759.54 1289.43 1753.95 1290.1C1746.72 1290.97 1736.32 1286.69 1736.32 1286.69C1736.32 1286.69 1722.37 1279.45 1711.75 1275.43C1698.89 1270.55 1690.8 1268.05 1675.38 1264.48C1646.69 1257.82 1627.09 1255.98 1594.18 1254.35C1563.86 1252.85 1546.47 1254.26 1516.31 1255.68C1492.53 1256.81 1456.07 1259.98 1456.07 1259.98Z" fill="#F3447C"/>
<path d="M1681 1204.57L1577.98 854.905L2327.98 713.013L2431 1062.67L1681 1204.57Z" fill="white"/>
<path d="M2117.81 1523.82L2006.55 1142.07L2091.03 1125.17L2204.35 1523.82H2117.81Z" fill="#AB672E"/>
<path d="M2064.24 1277.2L2093.09 1285.65V1307.61L2078.66 1319.43L2070.42 1334.63V1356.59H2056L2035.4 1343.08L2018.91 1319.43L2025.09 1297.47L2064.24 1277.2Z" fill="#DD255C"/>
<circle cx="2004" cy="959.013" r="142.5" stroke="#23B121" stroke-width="15"/>
<path d="M1950.5 1017.51C1950.5 1017.51 2036 1057.51 2042.5 1060.51C2049 1063.51 2042.5 866.013 2042.5 866.013" stroke="#23B121" stroke-width="15"/>
<ellipse cx="2036.5" cy="1793.5" rx="3.5" ry="4.5" fill="#FFE4F0"/>
<ellipse cx="2049.5" cy="1788.5" rx="3.5" ry="4.5" fill="#FFE4F0"/>
<ellipse cx="2062.5" cy="1783.5" rx="3.5" ry="4.5" fill="#FFE4F0"/>
<ellipse cx="2074.5" cy="1774.5" rx="3.5" ry="4.5" fill="#FFE4F0"/>
<ellipse cx="2082.5" cy="1761.5" rx="3.5" ry="4.5" fill="#FFE4F0"/>
<ellipse cx="2096.5" cy="1749.5" rx="3.5" ry="4.5" fill="#FFE4F0"/>
<ellipse cx="2103.5" cy="1731.5" rx="3.5" ry="4.5" fill="#FFE4F0"/>
<ellipse cx="2103.5" cy="1699.5" rx="3.5" ry="4.5" fill="#FFE4F0"/>
<ellipse cx="1897.5" cy="1809.5" rx="3.5" ry="4.5" fill="#FFE4F0"/>
<ellipse cx="1871.5" cy="1789.5" rx="3.5" ry="4.5" fill="#FFE4F0"/>
<ellipse cx="1875.5" cy="1805.5" rx="3.5" ry="4.5" fill="#FFE4F0"/>
<ellipse cx="1850.5" cy="1792.5" rx="3.5" ry="4.5" fill="#FFE4F0"/>
<ellipse cx="1888.5" cy="1797.5" rx="3.5" ry="4.5" fill="#FFE4F0"/>
<ellipse cx="1909.5" cy="1797.5" rx="3.5" ry="4.5" fill="#FFE4F0"/>
<ellipse cx="1916.5" cy="1811.5" rx="3.5" ry="4.5" fill="#FFE4F0"/>
<ellipse cx="1930.5" cy="1802.5" rx="3.5" ry="4.5" fill="#FFE4F0"/>
<ellipse cx="1937.5" cy="1812.5" rx="3.5" ry="4.5" fill="#FFE4F0"/>
<ellipse cx="1951.5" cy="1802.5" rx="3.5" ry="4.5" fill="#FFE4F0"/>
<ellipse cx="1962.5" cy="1812.5" rx="3.5" ry="4.5" fill="#FFE4F0"/>
<ellipse cx="1977.5" cy="1802.5" rx="3.5" ry="4.5" fill="#FFE4F0"/>
<ellipse cx="1992.5" cy="1809.5" rx="3.5" ry="4.5" fill="#FFE4F0"/>
<ellipse cx="2003.5" cy="1796.5" rx="3.5" ry="4.5" fill="#FFE4F0"/>
<ellipse cx="2017.5" cy="1802.5" rx="3.5" ry="4.5" fill="#FFE4F0"/>
<ellipse cx="2024.5" cy="1783.5" rx="3.5" ry="4.5" fill="#FFE4F0"/>
<ellipse cx="2067.5" cy="1557.5" rx="3.5" ry="4.5" fill="#FFE4F0"/>
<ellipse cx="2064.5" cy="1611.5" rx="3.5" ry="4.5" fill="#FFE4F0"/>
<ellipse cx="2074.5" cy="1653.5" rx="3.5" ry="4.5" fill="#FFE4F0"/>
<ellipse cx="2080.5" cy="1699.5" rx="3.5" ry="4.5" fill="#FFE4F0"/>
<ellipse cx="2074.5" cy="1730.5" rx="3.5" ry="4.5" fill="#FFE4F0"/>
<ellipse cx="2043.5" cy="1774.5" rx="3.5" ry="4.5" fill="#FFE4F0"/>
<ellipse cx="2059.5" cy="1766.5" rx="3.5" ry="4.5" fill="#FFE4F0"/>
<ellipse cx="2065.5" cy="1749.5" rx="3.5" ry="4.5" fill="#FFE4F0"/>
<ellipse cx="2087.5" cy="1740.5" rx="3.5" ry="4.5" fill="#FFE4F0"/>
<ellipse cx="2091.5" cy="1712.5" rx="3.5" ry="4.5" fill="#FFE4F0"/>
<ellipse cx="2085.5" cy="1681.5" rx="3.5" ry="4.5" fill="#FFE4F0"/>
<ellipse cx="2085.5" cy="1663.5" rx="3.5" ry="4.5" fill="#FFE4F0"/>
<ellipse cx="2085.5" cy="1644.5" rx="3.5" ry="4.5" fill="#FFE4F0"/>
<ellipse cx="2074.5" cy="1628.5" rx="3.5" ry="4.5" fill="#FFE4F0"/>
<ellipse cx="2077.5" cy="1606.5" rx="3.5" ry="4.5" fill="#FFE4F0"/>
<ellipse cx="2070.5" cy="1588.5" rx="3.5" ry="4.5" fill="#FFE4F0"/>
<ellipse cx="2077.5" cy="1574.5" rx="3.5" ry="4.5" fill="#FFE4F0"/>
<ellipse cx="2085.5" cy="1593.5" rx="3.5" ry="4.5" fill="#FFE4F0"/>
<ellipse cx="2089.5" cy="1613.5" rx="3.5" ry="4.5" fill="#FFE4F0"/>
<ellipse cx="2092.5" cy="1632.5" rx="3.5" ry="4.5" fill="#FFE4F0"/>
<ellipse cx="2096.5" cy="1649.5" rx="3.5" ry="4.5" fill="#FFE4F0"/>
<ellipse cx="2099.5" cy="1667.5" rx="3.5" ry="4.5" fill="#FFE4F0"/>
<ellipse cx="2103.5" cy="1683.5" rx="3.5" ry="4.5" fill="#FFE4F0"/>
<ellipse cx="2103.5" cy="1715.5" rx="3.5" ry="4.5" fill="#FFE4F0"/>
<circle cx="2066" cy="1749" r="2" fill="#F4C6D6"/>
<circle cx="2083" cy="1762" r="2" fill="#F4C6D6"/>
<circle cx="2075" cy="1774" r="2" fill="#F4C6D6"/>
<circle cx="2059" cy="1766" r="2" fill="#F4C6D6"/>
<circle cx="2063" cy="1784" r="2" fill="#F4C6D6"/>
<circle cx="2050" cy="1789" r="2" fill="#F4C6D6"/>
<circle cx="2037" cy="1794" r="2" fill="#F4C6D6"/>
<circle cx="2025" cy="1784" r="2" fill="#F4C6D6"/>
<circle cx="2018" cy="1803" r="2" fill="#F4C6D6"/>
<circle cx="2004" cy="1797" r="2" fill="#F4C6D6"/>
<circle cx="1993" cy="1809" r="2" fill="#F4C6D6"/>
<circle cx="1978" cy="1803" r="2" fill="#F4C6D6"/>
<circle cx="1963" cy="1813" r="2" fill="#F4C6D6"/>
<ellipse cx="1435.5" cy="1826.5" rx="3.5" ry="4.5" fill="#FFE4F0"/>
<circle cx="1436" cy="1827" r="2" fill="#F4C6D6"/>
<ellipse cx="1425.5" cy="1836.5" rx="3.5" ry="4.5" fill="#FFE4F0"/>
<circle cx="1426" cy="1837" r="2" fill="#F4C6D6"/>
<ellipse cx="1418.5" cy="1850.5" rx="3.5" ry="4.5" fill="#FFE4F0"/>
<circle cx="1419" cy="1851" r="2" fill="#F4C6D6"/>
<ellipse cx="1406.5" cy="1862.5" rx="3.5" ry="4.5" fill="#FFE4F0"/>
<circle cx="1407" cy="1863" r="2" fill="#F4C6D6"/>
<ellipse cx="1399.5" cy="1879.5" rx="3.5" ry="4.5" fill="#FFE4F0"/>
<circle cx="1400" cy="1880" r="2" fill="#F4C6D6"/>
<ellipse cx="1389.5" cy="1888.5" rx="3.5" ry="4.5" fill="#FFE4F0"/>
<circle cx="1390" cy="1889" r="2" fill="#F4C6D6"/>
<ellipse cx="1386.5" cy="1901.5" rx="3.5" ry="4.5" fill="#FFE4F0"/>
<circle cx="1387" cy="1902" r="2" fill="#F4C6D6"/>
<ellipse cx="1373.5" cy="1900.5" rx="3.5" ry="4.5" fill="#FFE4F0"/>
<circle cx="1374" cy="1901" r="2" fill="#F4C6D6"/>
<ellipse cx="1375.5" cy="1915.5" rx="3.5" ry="4.5" fill="#FFE4F0"/>
<circle cx="1376" cy="1916" r="2" fill="#F4C6D6"/>
<ellipse cx="1361.5" cy="1922.5" rx="3.5" ry="4.5" fill="#FFE4F0"/>
<circle cx="1362" cy="1923" r="2" fill="#F4C6D6"/>
<ellipse cx="1363.5" cy="1908.5" rx="3.5" ry="4.5" fill="#FFE4F0"/>
<circle cx="1364" cy="1909" r="2" fill="#F4C6D6"/>
<ellipse cx="1345.5" cy="1914.5" rx="3.5" ry="4.5" fill="#FFE4F0"/>
<circle cx="1346" cy="1915" r="2" fill="#F4C6D6"/>
<ellipse cx="1338.5" cy="1927.5" rx="3.5" ry="4.5" fill="#FFE4F0"/>
<circle cx="1339" cy="1928" r="2" fill="#F4C6D6"/>
<ellipse cx="1323.5" cy="1921.5" rx="3.5" ry="4.5" fill="#FFE4F0"/>
<circle cx="1324" cy="1922" r="2" fill="#F4C6D6"/>
<ellipse cx="1313.5" cy="1932.5" rx="3.5" ry="4.5" fill="#FFE4F0"/>
<circle cx="1314" cy="1933" r="2" fill="#F4C6D6"/>
<ellipse cx="1298.5" cy="1926.5" rx="3.5" ry="4.5" fill="#FFE4F0"/>
<circle cx="1299" cy="1927" r="2" fill="#F4C6D6"/>
<ellipse cx="1273.5" cy="1929.5" rx="3.5" ry="4.5" fill="#FFE4F0"/>
<circle cx="1274" cy="1930" r="2" fill="#F4C6D6"/>
<ellipse cx="1258.5" cy="1936.5" rx="3.5" ry="4.5" fill="#FFE4F0"/>
<circle cx="1259" cy="1937" r="2" fill="#F4C6D6"/>
<ellipse cx="1247.5" cy="1930.5" rx="3.5" ry="4.5" fill="#FFE4F0"/>
<circle cx="1248" cy="1931" r="2" fill="#F4C6D6"/>
<ellipse cx="1234.5" cy="1936.5" rx="3.5" ry="4.5" fill="#FFE4F0"/>
<circle cx="1235" cy="1937" r="2" fill="#F4C6D6"/>
<ellipse cx="1226.5" cy="1928.5" rx="3.5" ry="4.5" fill="#FFE4F0"/>
<circle cx="1227" cy="1929" r="2" fill="#F4C6D6"/>
<ellipse cx="1210.5" cy="1935.5" rx="3.5" ry="4.5" fill="#FFE4F0"/>
<circle cx="1211" cy="1936" r="2" fill="#F4C6D6"/>
<ellipse cx="1196.5" cy="1927.5" rx="3.5" ry="4.5" fill="#FFE4F0"/>
<circle cx="1197" cy="1928" r="2" fill="#F4C6D6"/>
<ellipse cx="1179.5" cy="1932.5" rx="3.5" ry="4.5" fill="#FFE4F0"/>
<circle cx="1180" cy="1933" r="2" fill="#F4C6D6"/>
<ellipse cx="1160.5" cy="1925.5" rx="3.5" ry="4.5" fill="#FFE4F0"/>
<circle cx="1161" cy="1926" r="2" fill="#F4C6D6"/>
<ellipse cx="1141.5" cy="1930.5" rx="3.5" ry="4.5" fill="#FFE4F0"/>
<circle cx="1142" cy="1931" r="2" fill="#F4C6D6"/>
<ellipse cx="1123.5" cy="1924.5" rx="3.5" ry="4.5" fill="#FFE4F0"/>
<circle cx="1124" cy="1925" r="2" fill="#F4C6D6"/>
<ellipse cx="1102.5" cy="1928.5" rx="3.5" ry="4.5" fill="#FFE4F0"/>
<circle cx="1103" cy="1929" r="2" fill="#F4C6D6"/>
<ellipse cx="1088.5" cy="1921.5" rx="3.5" ry="4.5" fill="#FFE4F0"/>
<circle cx="1089" cy="1922" r="2" fill="#F4C6D6"/>
<ellipse cx="1080.5" cy="1931.5" rx="3.5" ry="4.5" fill="#FFE4F0"/>
<circle cx="1081" cy="1932" r="2" fill="#F4C6D6"/>
<ellipse cx="1067.5" cy="1921.5" rx="3.5" ry="4.5" fill="#FFE4F0"/>
<circle cx="1068" cy="1922" r="2" fill="#F4C6D6"/>
<ellipse cx="1060.5" cy="1933.5" rx="3.5" ry="4.5" fill="#FFE4F0"/>
<circle cx="1061" cy="1934" r="2" fill="#F4C6D6"/>
<ellipse cx="1047.5" cy="1927.5" rx="3.5" ry="4.5" fill="#FFE4F0"/>
<circle cx="1048" cy="1928" r="2" fill="#F4C6D6"/>
<ellipse cx="1045.5" cy="1942.5" rx="3.5" ry="4.5" fill="#FFE4F0"/>
<circle cx="1046" cy="1943" r="2" fill="#F4C6D6"/>
<ellipse cx="1032.5" cy="1935.5" rx="3.5" ry="4.5" fill="#FFE4F0"/>
<circle cx="1033" cy="1936" r="2" fill="#F4C6D6"/>
<ellipse cx="1029.5" cy="1949.5" rx="3.5" ry="4.5" fill="#FFE4F0"/>
<circle cx="1030" cy="1950" r="2" fill="#F4C6D6"/>
<ellipse cx="1017.5" cy="1946.5" rx="3.5" ry="4.5" fill="#FFE4F0"/>
<circle cx="1018" cy="1947" r="2" fill="#F4C6D6"/>
<ellipse cx="1008.5" cy="1954.5" rx="3.5" ry="4.5" fill="#FFE4F0"/>
<circle cx="1009" cy="1955" r="2" fill="#F4C6D6"/>
<ellipse cx="1287.5" cy="1934.5" rx="3.5" ry="4.5" fill="#FFE4F0"/>
<circle cx="1288" cy="1935" r="2" fill="#F4C6D6"/>
<circle cx="1952" cy="1802" r="2" fill="#F4C6D6"/>
<circle cx="1938" cy="1813" r="2" fill="#F4C6D6"/>
<circle cx="1931" cy="1803" r="2" fill="#F4C6D6"/>
<circle cx="1917" cy="1812" r="2" fill="#F4C6D6"/>
<circle cx="1910" cy="1797" r="2" fill="#F4C6D6"/>
<circle cx="1897" cy="1810" r="2" fill="#F4C6D6"/>
<circle cx="1889" cy="1797" r="2" fill="#F4C6D6"/>
<circle cx="1876" cy="1806" r="2" fill="#F4C6D6"/>
<circle cx="1872" cy="1790" r="2" fill="#F4C6D6"/>
<circle cx="1851" cy="1793" r="2" fill="#F4C6D6"/>
<circle cx="2044" cy="1774" r="2" fill="#F4C6D6"/>
<circle cx="2097" cy="1749" r="2" fill="#F4C6D6"/>
<circle cx="2088" cy="1740" r="2" fill="#F4C6D6"/>
<circle cx="2104" cy="1731" r="2" fill="#F4C6D6"/>
<circle cx="2104" cy="1716" r="2" fill="#F4C6D6"/>
<circle cx="2092" cy="1713" r="2" fill="#F4C6D6"/>
<circle cx="2081" cy="1699" r="2" fill="#F4C6D6"/>
<circle cx="2104" cy="1699" r="2" fill="#F4C6D6"/>
<circle cx="2104" cy="1684" r="2" fill="#F4C6D6"/>
<circle cx="2086" cy="1682" r="2" fill="#F4C6D6"/>
<circle cx="2100" cy="1668" r="2" fill="#F4C6D6"/>
<circle cx="2086" cy="1664" r="2" fill="#F4C6D6"/>
<circle cx="2097" cy="1650" r="2" fill="#F4C6D6"/>
<circle cx="2086" cy="1645" r="2" fill="#F4C6D6"/>
<circle cx="2075" cy="1654" r="2" fill="#F4C6D6"/>
<circle cx="2093" cy="1633" r="2" fill="#F4C6D6"/>
<circle cx="2075" cy="1628" r="2" fill="#F4C6D6"/>
<circle cx="2090" cy="1614" r="2" fill="#F4C6D6"/>
<circle cx="2078" cy="1606" r="2" fill="#F4C6D6"/>
<circle cx="2065" cy="1612" r="2" fill="#F4C6D6"/>
<circle cx="2086" cy="1594" r="2" fill="#F4C6D6"/>
<circle cx="2071" cy="1589" r="2" fill="#F4C6D6"/>
<circle cx="2078" cy="1574" r="2" fill="#F4C6D6"/>
<circle cx="2068" cy="1557" r="2" fill="#F4C6D6"/>
<circle cx="2075" cy="1730" r="2" fill="#F4C6D6"/>
</svg>
