<svg width="107" height="107" viewBox="0 0 107 107" fill="none" xmlns="http://www.w3.org/2000/svg">
<path d="M30.4478 81.1785C15.2541 68.3546 13.333 45.6417 26.157 30.448C38.981 15.2543 61.6938 13.3332 76.8875 26.1572C92.0813 38.9811 94.0023 61.694 81.1783 76.8877C68.3543 92.0814 45.6415 94.0025 30.4478 81.1785Z" stroke="#DDEA53" stroke-width="3"/>
<path d="M42.0205 80.2574C30.298 70.3631 28.7534 52.9528 38.5263 41.3739C48.2992 29.795 65.7217 28.3935 77.4443 38.2877C89.1669 48.182 90.7115 65.5923 80.9385 77.1712C71.1656 88.7501 53.7431 90.1516 42.0205 80.2574Z" stroke="#DDEA53" stroke-width="3"/>
<path d="M52.5418 79.4204C43.9845 72.1978 42.8616 59.4939 49.9893 51.049C57.1171 42.6042 69.8291 41.5774 78.3863 48.8C86.9436 56.0226 88.0665 68.7265 80.9388 77.1713C73.8111 85.6162 61.099 86.643 52.5418 79.4204Z" stroke="#DDEA53" stroke-width="3"/>
<path d="M63.0625 78.5831C57.6706 74.0322 56.9694 66.0347 61.4519 60.7239C65.9344 55.413 73.9361 54.7611 79.3279 59.312C84.7198 63.8629 85.4211 71.8604 80.9386 77.1713C76.4561 82.4821 68.4544 83.134 63.0625 78.5831Z" stroke="#DDEA53" stroke-width="3"/>
</svg>
