<svg width="157" height="359" viewBox="0 0 157 359" fill="none" xmlns="http://www.w3.org/2000/svg">
<path d="M108.132 235.139L119.167 252.792C119.167 252.792 114.402 247.425 110.848 244.626C107.326 241.85 105.154 240.519 101.165 238.579C96.1137 236.123 93.0415 235.16 87.5723 234.114C82.2581 233.097 79.156 232.829 73.7684 233.233C68.3088 233.642 65.2016 234.297 60.0397 236.23C53.9689 238.503 50.7226 240.516 45.5716 244.614C41.2781 248.029 35.638 254.685 35.638 254.685L45.4152 236.561L51.7479 214.935L55.7669 190.079L98.2343 189.116L103.215 213.768L108.132 235.139Z" stroke="#090909" stroke-width="4"/>
<path d="M22.9393 294.634C22.2846 260.93 46.8026 236.143 77.1879 235.455C107.548 234.766 132.469 258.406 133.124 292.137C133.782 325.987 109.463 353.651 79.2155 354.336C48.968 355.022 23.5967 328.485 22.9393 294.634Z" stroke="#090909" stroke-width="4"/>
<rect x="-2.03833" y="-1.9543" width="39.8849" height="15.0909" rx="2" transform="matrix(-0.999743 0.0226626 -0.0194193 -0.999812 94.6885 185.54)" stroke="#090909" stroke-width="4"/>
<rect x="-1.67206" y="-1.60314" width="37.2279" height="3.28125" rx="1.64063" transform="matrix(-0.999743 0.0226626 -0.0194193 -0.999812 93.4045 168.974)" stroke="#090909" stroke-width="3.28125"/>
<rect x="-1.67206" y="-1.60314" width="30.4763" height="3.28125" rx="1.64063" transform="matrix(-0.999743 0.0226626 -0.0194193 -0.999812 89.9368 164.279)" stroke="#090909" stroke-width="3.28125"/>
<mask id="path-6-inside-1" fill="white">
<path d="M90.9748 163.024C90.9452 161.497 90.5302 159.993 89.7538 158.599C88.9773 157.205 87.8544 155.947 86.4493 154.899C85.0442 153.85 83.3843 153.031 81.5645 152.487C79.7447 151.944 77.8006 151.687 75.8432 151.731C73.8857 151.775 71.9533 152.12 70.1562 152.746C68.3591 153.371 66.7325 154.265 65.3693 155.377C64.0062 156.488 62.9331 157.795 62.2115 159.223C61.4898 160.652 61.1336 162.173 61.1633 163.7L76.0691 163.362L90.9748 163.024Z"/>
</mask>
<path d="M90.9748 163.024C90.9452 161.497 90.5302 159.993 89.7538 158.599C88.9773 157.205 87.8544 155.947 86.4493 154.899C85.0442 153.85 83.3843 153.031 81.5645 152.487C79.7447 151.944 77.8006 151.687 75.8432 151.731C73.8857 151.775 71.9533 152.12 70.1562 152.746C68.3591 153.371 66.7325 154.265 65.3693 155.377C64.0062 156.488 62.9331 157.795 62.2115 159.223C61.4898 160.652 61.1336 162.173 61.1633 163.7L76.0691 163.362L90.9748 163.024Z" stroke="#090909" stroke-width="8" mask="url(#path-6-inside-1)"/>
<g filter="url(#filter0_d)">
<path d="M76 151V2" stroke="#090909" stroke-width="2"/>
</g>
<defs>
<filter id="filter0_d" x="73" y="0" width="14" height="161" filterUnits="userSpaceOnUse" color-interpolation-filters="sRGB">
<feFlood flood-opacity="0" result="BackgroundImageFix"/>
<feColorMatrix in="SourceAlpha" type="matrix" values="0 0 0 0 0 0 0 0 0 0 0 0 0 0 0 0 0 0 127 0"/>
<feOffset dx="4" dy="4"/>
<feGaussianBlur stdDeviation="3"/>
<feColorMatrix type="matrix" values="0 0 0 0 0 0 0 0 0 0 0 0 0 0 0 0 0 0 0.25 0"/>
<feBlend mode="normal" in2="BackgroundImageFix" result="effect1_dropShadow"/>
<feBlend mode="normal" in="SourceGraphic" in2="effect1_dropShadow" result="shape"/>
</filter>
</defs>
</svg>
