<svg width="156" height="358" viewBox="0 0 156 358" fill="none" xmlns="http://www.w3.org/2000/svg">
<path d="M107.736 234.036L118.832 251.65C118.832 251.65 114.049 246.301 110.486 243.513C106.954 240.75 104.777 239.427 100.781 237.501C95.7216 235.062 92.6461 234.109 87.1734 233.082C81.8556 232.083 78.7526 231.826 73.3664 232.249C67.9083 232.677 64.8034 233.342 59.6482 235.293C53.5853 237.587 50.346 239.612 45.2091 243.727C40.9275 247.156 35.3104 253.832 35.3104 253.832L45.0249 235.675L51.2829 214.027L55.2161 189.157L97.6799 188.048L102.746 212.682L107.736 234.036Z" stroke="black" stroke-width="4"/>
<path d="M22.7496 293.825C21.9786 260.123 46.4109 235.252 76.7936 234.458C107.151 233.665 132.154 257.219 132.925 290.947C133.7 324.795 109.477 352.542 79.2317 353.332C48.9868 354.123 23.524 327.673 22.7496 293.825Z" stroke="black" stroke-width="4"/>
<rect x="-2.04506" y="-1.94725" width="39.8849" height="15.0909" rx="2" transform="matrix(-0.999659 0.0261145 -0.0228715 -0.999738 94.1151 184.491)" stroke="black" stroke-width="4"/>
<rect x="-1.67759" y="-1.59735" width="37.2279" height="3.28125" rx="1.64063" transform="matrix(-0.999659 0.0261145 -0.0228715 -0.999738 92.775 167.928)" stroke="black" stroke-width="3.28125"/>
<rect x="-1.67759" y="-1.59735" width="30.4763" height="3.28125" rx="1.64063" transform="matrix(-0.999659 0.0261145 -0.0228715 -0.999738 89.2912 163.245)" stroke="black" stroke-width="3.28125"/>
<mask id="path-6-inside-1" fill="white">
<path d="M90.3303 161.981C90.2953 160.454 89.8752 158.951 89.0939 157.56C88.3126 156.168 87.1854 154.915 85.7767 153.871C84.368 152.827 82.7053 152.013 80.8836 151.476C79.062 150.939 77.117 150.689 75.1597 150.74C73.2024 150.791 71.2711 151.142 69.4762 151.774C67.6813 152.406 66.0578 153.305 64.6985 154.422C63.3392 155.538 62.2707 156.849 61.5539 158.279C60.8372 159.71 60.4863 161.232 60.5212 162.76L75.4258 162.37L90.3303 161.981Z"/>
</mask>
<path d="M90.3303 161.981C90.2953 160.454 89.8752 158.951 89.0939 157.56C88.3126 156.168 87.1854 154.915 85.7767 153.871C84.368 152.827 82.7053 152.013 80.8836 151.476C79.062 150.939 77.117 150.689 75.1597 150.74C73.2024 150.791 71.2711 151.142 69.4762 151.774C67.6813 152.406 66.0578 153.305 64.6985 154.422C63.3392 155.538 62.2707 156.849 61.5539 158.279C60.8372 159.71 60.4863 161.232 60.5212 162.76L75.4258 162.37L90.3303 161.981Z" stroke="black" stroke-width="8" mask="url(#path-6-inside-1)"/>
<g filter="url(#filter0_d)">
<path d="M75.5113 1C83.3496 15.6282 41.5065 30.6715 41.0061 53.7986C40.135 94.0553 132.681 67.6954 130.977 90.0034C129.273 112.312 94.8522 79.0323 72.0187 98.4147C49.1853 117.797 98.7431 118.837 93.489 134.62C90.8595 142.518 72.0187 131.72 75.5113 150" stroke="black" stroke-width="2"/>
</g>
<defs>
<filter id="filter0_d" x="40" y="0.52771" width="101" height="157.66" filterUnits="userSpaceOnUse" color-interpolation-filters="sRGB">
<feFlood flood-opacity="0" result="BackgroundImageFix"/>
<feColorMatrix in="SourceAlpha" type="matrix" values="0 0 0 0 0 0 0 0 0 0 0 0 0 0 0 0 0 0 127 0"/>
<feOffset dx="5" dy="4"/>
<feGaussianBlur stdDeviation="2"/>
<feColorMatrix type="matrix" values="0 0 0 0 0 0 0 0 0 0 0 0 0 0 0 0 0 0 0.25 0"/>
<feBlend mode="normal" in2="BackgroundImageFix" result="effect1_dropShadow"/>
<feBlend mode="normal" in="SourceGraphic" in2="effect1_dropShadow" result="shape"/>
</filter>
</defs>
</svg>
